<svg fill="#282828" xmlns="http://www.w3.org/2000/svg" xmlns:xlink="http://www.w3.org/1999/xlink" version="1.1" x="0px" y="0px" viewBox="0 0 96 96" enable-background="new 0 0 96 96" xml:space="preserve"><g><polygon points="9,86.193 33.546,80.251 33.546,9.807 9,15.749  "></polygon><path d="M48,35.738c-1.988,0-3.605,1.617-3.605,3.604c0,1.988,1.617,3.605,3.605,3.605c1.986,0,3.604-1.617,3.604-3.605   C51.604,37.355,49.986,35.738,48,35.738z"></path><path d="M35.552,9.92l0.326,70.446l24.571,5.714l-0.326-70.446L35.552,9.92z M48.428,54.423L48,55.13l-0.428-0.707   c-0.285-0.471-6.988-11.588-6.988-15.503c0-4.09,3.327-7.417,7.416-7.417s7.416,3.327,7.416,7.417   C55.416,42.834,48.713,53.951,48.428,54.423z"></path><polygon points="62.454,15.749 62.454,86.193 87,80.251 87,9.807  "></polygon></g></svg>